<svg width="182" height="184" viewBox="0 0 182 184" fill="none" xmlns="http://www.w3.org/2000/svg">
<path d="M178 92C178 140.642 139.008 180 91 180C42.9923 180 4 140.642 4 92C4 43.3576 42.9923 4 91 4C139.008 4 178 43.3576 178 92Z" fill="#F0F0F0" stroke="white" stroke-width="8"/>
<rect x="78" y="120" width="26" height="8" fill="#D9423A"/>
<path d="M54 66H125V111H54V66Z" fill="#B1B1B1"/>
<path d="M55 111H126V120H55V111Z" fill="white"/>
<path d="M126.5 111H116M55 111H109.5M113.5 111H112" stroke="black" stroke-width="3"/>
<path d="M112.5 128.5H107M69.5 128.5H75M75 128.5L80 119M75 128.5H107M80 119H101.5M80 119H55V66H69.5L71.5 76.5L78.5 86M101.5 119L107 128.5M101.5 119H126.5V66H112.5L110.5 77L102 86M72 86H78.5M109.5 86H102M102 86H78.5" stroke="black" stroke-width="3"/>
<path d="M112.5 66.5C112.5 77.452 102.971 86.5 91 86.5C79.029 86.5 69.5 77.452 69.5 66.5C69.5 55.548 79.029 46.5 91 46.5C102.971 46.5 112.5 55.548 112.5 66.5Z" fill="#D9423A" stroke="black" stroke-width="3"/>
<path d="M90.1577 75.8182V57.6364H91.3224V75.8182H90.1577ZM92.9631 63.8153C92.9157 63.2945 92.705 62.8897 92.331 62.6009C91.9616 62.3073 91.4337 62.1605 90.7472 62.1605C90.2926 62.1605 89.9138 62.2197 89.6108 62.3381C89.3078 62.4564 89.0805 62.6198 88.929 62.8281C88.7775 63.0317 88.6993 63.2661 88.6946 63.5312C88.6851 63.7491 88.7277 63.9408 88.8224 64.1065C88.9219 64.2723 89.0639 64.419 89.2486 64.5469C89.438 64.67 89.6652 64.7789 89.9304 64.8736C90.1955 64.9683 90.4938 65.0511 90.8253 65.1222L92.0753 65.4062C92.795 65.5625 93.4295 65.7708 93.9787 66.0312C94.5327 66.2917 94.9967 66.6018 95.3707 66.9616C95.7495 67.3215 96.036 67.7358 96.2301 68.2045C96.4242 68.6733 96.5237 69.1989 96.5284 69.7812C96.5237 70.6998 96.2917 71.4882 95.8324 72.1463C95.3731 72.8045 94.7126 73.3087 93.8509 73.6591C92.9938 74.0095 91.9593 74.1847 90.7472 74.1847C89.5303 74.1847 88.4697 74.0024 87.5653 73.6378C86.661 73.2732 85.9579 72.7192 85.456 71.9759C84.9541 71.2325 84.696 70.2926 84.6818 69.1562H88.0483C88.0767 69.625 88.2022 70.0156 88.4247 70.3281C88.6473 70.6406 88.9527 70.8774 89.3409 71.0384C89.7339 71.1993 90.1884 71.2798 90.7045 71.2798C91.178 71.2798 91.5805 71.2159 91.9119 71.0881C92.2481 70.9602 92.5062 70.7827 92.6861 70.5554C92.866 70.3281 92.9583 70.0677 92.9631 69.7741C92.9583 69.4995 92.8731 69.2652 92.7074 69.071C92.5417 68.8722 92.286 68.7017 91.9403 68.5597C91.5994 68.4129 91.1638 68.2779 90.6335 68.1548L89.1136 67.7997C87.8542 67.5109 86.8622 67.0445 86.1378 66.4006C85.4134 65.7519 85.0535 64.8759 85.0582 63.7727C85.0535 62.8731 85.295 62.0848 85.7827 61.4077C86.2704 60.7306 86.9451 60.2027 87.8068 59.8239C88.6686 59.4451 89.651 59.2557 90.7543 59.2557C91.8812 59.2557 92.8589 59.4474 93.6875 59.831C94.5208 60.2098 95.1671 60.7424 95.6264 61.429C96.0857 62.1155 96.3201 62.911 96.3295 63.8153H92.9631Z" fill="white"/>
</svg>
