<svg width="182" height="184" viewBox="0 0 182 184" fill="none" xmlns="http://www.w3.org/2000/svg">
<path d="M178 92C178 140.642 139.008 180 91 180C42.9923 180 4 140.642 4 92C4 43.3576 42.9923 4 91 4C139.008 4 178 43.3576 178 92Z" fill="#F0F0F0" stroke="white" stroke-width="8"/>
<path d="M83 63H110.5" stroke="#D9423A" stroke-width="3"/>
<path d="M83 67H110.5" stroke="#D9423A" stroke-width="3"/>
<path d="M83 71H99" stroke="#D9423A" stroke-width="3"/>
<mask id="path-5-inside-1_273_3" fill="white">
<path d="M129 128.5C129 126.333 128.586 124.188 127.782 122.186C126.978 120.184 125.799 118.365 124.314 116.833C122.828 115.301 121.064 114.085 119.123 113.256C117.182 112.427 115.101 112 113 112C110.899 112 108.818 112.427 106.877 113.256C104.936 114.085 103.172 115.301 101.686 116.833C100.201 118.365 99.022 120.184 98.2179 122.186C97.4139 124.188 97 126.333 97 128.5L113 128.5H129Z"/>
</mask>
<path d="M129 128.5C129 126.333 128.586 124.188 127.782 122.186C126.978 120.184 125.799 118.365 124.314 116.833C122.828 115.301 121.064 114.085 119.123 113.256C117.182 112.427 115.101 112 113 112C110.899 112 108.818 112.427 106.877 113.256C104.936 114.085 103.172 115.301 101.686 116.833C100.201 118.365 99.022 120.184 98.2179 122.186C97.4139 124.188 97 126.333 97 128.5L113 128.5H129Z" fill="#D9423A" stroke="black" stroke-width="6" mask="url(#path-5-inside-1_273_3)"/>
<circle cx="113.5" cy="100.5" r="7" fill="white" stroke="black" stroke-width="3"/>
<path d="M71.5 70H77.5V56.5H96.5V47H58.5V70H64V79.5L71.5 70Z" fill="#D9423A" stroke="black" stroke-width="3"/>
<path d="M109.135 78.9385V88L101.838 80.3692H78V57H114V78.9385H109.135Z" stroke="black" stroke-width="3"/>
<mask id="path-9-inside-2_273_3" fill="white">
<path d="M85 128.5C85 126.333 84.5861 124.188 83.7821 122.186C82.978 120.184 81.7994 118.365 80.3137 116.833C78.828 115.301 77.0641 114.085 75.1229 113.256C73.1817 112.427 71.1011 112 69 112C66.8988 112 64.8183 112.427 62.8771 113.256C60.9359 114.085 59.172 115.301 57.6863 116.833C56.2006 118.365 55.022 120.184 54.2179 122.186C53.4139 124.188 53 126.333 53 128.5L69 128.5H85Z"/>
</mask>
<path d="M85 128.5C85 126.333 84.5861 124.188 83.7821 122.186C82.978 120.184 81.7994 118.365 80.3137 116.833C78.828 115.301 77.0641 114.085 75.1229 113.256C73.1817 112.427 71.1011 112 69 112C66.8988 112 64.8183 112.427 62.8771 113.256C60.9359 114.085 59.172 115.301 57.6863 116.833C56.2006 118.365 55.022 120.184 54.2179 122.186C53.4139 124.188 53 126.333 53 128.5L69 128.5H85Z" fill="#D9423A" stroke="black" stroke-width="6" mask="url(#path-9-inside-2_273_3)"/>
<circle cx="69.5" cy="100.5" r="7" fill="white" stroke="black" stroke-width="3"/>
</svg>
