<svg width="182" height="184" viewBox="0 0 182 184" fill="none" xmlns="http://www.w3.org/2000/svg">
<path d="M178 92C178 140.642 139.008 180 91 180C42.9923 180 4 140.642 4 92C4 43.3576 42.9923 4 91 4C139.008 4 178 43.3576 178 92Z" fill="#F0F0F0" stroke="white" stroke-width="8"/>
<rect x="84" y="112.5" width="15" height="4" fill="white"/>
<rect x="57" y="62.5" width="70" height="51" fill="white"/>
<rect x="81" y="117.5" width="21" height="5" fill="#D9423A"/>
<path d="M52.5 113.5H82V123H57L52.5 119.5V113.5Z" fill="#D9423A"/>
<path d="M131 113.5H101V122.5H126.424L131 119.184V113.5Z" fill="#D9423A"/>
<path d="M56 112.5H82.5V117H100V112.5H126.5M56 112.5V62.5V62H110M56 112.5H51V120L56 123.5H126.5L131.5 120V112.5H126.5M126.5 112.5V62H116M114 62H112.5H112M121.5 105.5H61V67.5H121.5V105.5Z" stroke="black" stroke-width="3"/>
<path d="M56 112.5H82.5V117H100V112.5H126.5M56 112.5V62.5V62H110M56 112.5H51V120L56 123.5H126.5L131.5 120V112.5H126.5M126.5 112.5V62H116M114 62H112.5H112M121.5 105.5H61V67.5H121.5V105.5Z" stroke="black" stroke-opacity="0.2" stroke-width="3"/>
<rect x="62" y="68.5" width="58" height="36" fill="#B1B1B1"/>
<mask id="path-9-inside-1_278_53" fill="white">
<path d="M107 106.5C107 103.052 105.367 99.7456 102.46 97.3076C99.5533 94.8696 95.6109 93.5 91.5 93.5C87.3891 93.5 83.4467 94.8696 80.5398 97.3076C77.633 99.7456 76 103.052 76 106.5L91.5 106.5H107Z"/>
</mask>
<path d="M107 106.5C107 103.052 105.367 99.7456 102.46 97.3076C99.5533 94.8696 95.6109 93.5 91.5 93.5C87.3891 93.5 83.4467 94.8696 80.5398 97.3076C77.633 99.7456 76 103.052 76 106.5L91.5 106.5H107Z" fill="white" stroke="black" stroke-width="6" mask="url(#path-9-inside-1_278_53)"/>
<path d="M84.5258 87.6985C82.9358 85.9012 81.9109 83.5428 81.6196 81H91.534L101.449 81C101.157 83.5428 100.132 85.9012 98.5423 87.6985C96.6487 89.8391 94.1227 91 91.534 91C88.9454 91 86.4194 89.8391 84.5258 87.6985Z" fill="white" stroke="black" stroke-width="3"/>
<rect x="81.5" y="74" width="20" height="6" fill="#D9423A" stroke="black" stroke-width="3"/>
<path d="M108 72H76.5" stroke="black" stroke-width="3"/>
<path d="M77.5 76V82V87.5" stroke="black" stroke-width="2"/>
</svg>
